<svg width="344" height="344" viewBox="0 0 344 344" fill="none" xmlns="http://www.w3.org/2000/svg">
<g filter="url(#filter0_d_36_14511)">
<path d="M171.984 52.8643C104.318 52.8643 70.4854 143.086 70.4854 188.196C70.4854 233.307 104.318 255.862 171.984 255.862C239.65 255.862 273.484 233.307 273.484 188.196C273.484 143.086 239.65 52.8643 171.984 52.8643Z" fill="url(#paint0_radial_36_14511)"/>
<path d="M127.617 124.349C144.462 119.835 155.766 107.397 152.864 96.5681C149.963 85.7388 133.954 80.6191 117.109 85.1328C100.263 89.6466 88.9597 102.085 91.8614 112.914C94.7631 123.743 110.771 128.863 127.617 124.349Z" fill="white" fill-opacity="0.1"/>
<path d="M138.152 167.032C145.149 167.032 150.822 161.36 150.822 154.362C150.822 147.365 145.149 141.692 138.152 141.692C131.155 141.692 125.482 147.365 125.482 154.362C125.482 161.36 131.155 167.032 138.152 167.032Z" stroke="#FBBF24" stroke-width="10.4145"/>
<path d="M205.817 167.032C212.815 167.032 218.488 161.36 218.488 154.362C218.488 147.365 212.815 141.692 205.817 141.692C198.82 141.692 193.147 147.365 193.147 154.362C193.147 161.36 198.82 167.032 205.817 167.032Z" stroke="#FBBF24" stroke-width="10.4145"/>
<path d="M171.985 201.512C176.848 201.512 180.791 197.569 180.791 192.706C180.791 187.842 176.848 183.899 171.985 183.899C167.121 183.899 163.178 187.842 163.178 192.706C163.178 197.569 167.121 201.512 171.985 201.512Z" stroke="#FBBF24" stroke-width="9.02214"/>
</g>
<defs>
<filter id="filter0_d_36_14511" x="-11.2775" y="-11.2782" width="366.525" height="366.525" filterUnits="userSpaceOnUse" color-interpolation-filters="sRGB">
<feFlood flood-opacity="0" result="BackgroundImageFix"/>
<feColorMatrix in="SourceAlpha" type="matrix" values="0 0 0 0 0 0 0 0 0 0 0 0 0 0 0 0 0 0 127 0" result="hardAlpha"/>
<feOffset dy="17.6214"/>
<feGaussianBlur stdDeviation="35.2427"/>
<feColorMatrix type="matrix" values="0 0 0 0 0.337255 0 0 0 0 0.278431 0 0 0 0 0.529412 0 0 0 0.4 0"/>
<feBlend mode="normal" in2="BackgroundImageFix" result="effect1_dropShadow_36_14511"/>
<feBlend mode="normal" in="SourceGraphic" in2="effect1_dropShadow_36_14511" result="shape"/>
</filter>
<radialGradient id="paint0_radial_36_14511" cx="0" cy="0" r="1" gradientUnits="userSpaceOnUse" gradientTransform="translate(6160.43 6142.81) scale(16239.9)">
<stop stop-color="#8A7AB5"/>
<stop offset="0.4" stop-color="#564787"/>
<stop offset="1" stop-color="#3E3263"/>
</radialGradient>
</defs>
</svg>
